# xmcd CD database file
#
# Track frame offsets:
#	150
#	17895
#	41122
#	66430
#	81371
#	100589
#	129917
#
# Disc length: 2071 seconds
#
# Revision: 0
# Processed by: cddbd v1.5.1PL0 Copyright (c) Steve Scherf et al.
# Submitted via: CDex 1.51
#
DISCID=58081507
DTITLE=Max Roach - Max Roach: Award Winning Drummer
DYEAR=1959
DGENRE=Jazz
TTITLE0=Tuba de Nod
TTITLE1=Milano
TTITLE2=Variations on the Scene
TTITLE3=Pieces of Quincy
TTITLE4=Old Folks
TTITLE5=Sadiga
TTITLE6=Gandolfo's Bounce
EXTD=YEAR: 1959
EXTT0=
EXTT1=
EXTT2=
EXTT3=
EXTT4=
EXTT5=
EXTT6=
PLAYORDER=
